<svg width="500" height="500" viewBox="0 0 500 500" fill="none" xmlns="http://www.w3.org/2000/svg">
<path fill-rule="evenodd" clip-rule="evenodd" d="M0.000976562 420C0.000976562 464.183 35.8182 500 80.001 500H420.001C464.184 500 500.001 464.183 500.001 420V80C500.001 35.8172 464.184 0 420.001 0H80.001C35.8182 0 0.000976562 35.8172 0.000976562 80V420Z" fill="#FD9A00"/>
<path fill-rule="evenodd" clip-rule="evenodd" d="M280.04 190.112C280.04 200.828 271.739 220.309 247.532 220.309C227.682 220.309 214.654 208.864 214.654 190.112C214.654 169.902 230.726 159.67 247.532 159.67C265.597 159.67 280.04 170.782 280.04 190.112" fill="white"/>
<path fill-rule="evenodd" clip-rule="evenodd" d="M246.885 252.843C210.176 252.843 178.98 229.9 178.98 190.444C178.98 148.229 210.176 127.587 246.885 127.587C283.588 127.587 313.41 151.898 313.41 190.444C313.41 229.442 283.588 252.843 246.885 252.843V252.843ZM377.159 76H243.868C240.214 76 236.55 76.0677 232.912 76.4008C174.942 81.6679 123 119.906 123 190.445C123 261.103 172.09 304.234 246.881 304.234C289.091 304.234 311.112 321.67 311.112 348.739C311.112 376.725 277.162 390.033 245.96 390.033C210.631 389.575 177.597 371.681 179.434 340.021H123.916C121.621 404.715 167.505 444.172 245.96 444.172C306.526 444.172 369.383 412.975 369.383 348.739C369.383 326.713 361.586 292.758 313.407 275.322C350.573 258.35 369.383 230.823 369.383 190.445C369.383 168.044 363.46 148.157 345.65 125.97H377.159V76Z" fill="white"/>
</svg>
