<svg width="114" height="38" viewBox="0 0 114 38" fill="none" xmlns="http://www.w3.org/2000/svg">
<path fill-rule="evenodd" clip-rule="evenodd" d="M27.863 17.189C27.863 20.4257 30.442 22.307 33.4756 22.307C36.5097 22.307 38.9747 20.3877 38.9747 17.189C38.9747 14.0279 36.5097 12.0334 33.4756 12.0334C30.442 12.0334 27.863 13.7269 27.863 17.189ZM43.6009 17.189C43.6009 20.5008 41.0151 26.5221 33.4756 26.5221C27.2943 26.5221 23.2363 22.9844 23.2363 17.189C23.2363 10.9419 28.242 7.78076 33.4756 7.78076C39.1025 7.78076 43.6009 11.2138 43.6009 17.189Z" fill="#FC9900"/>
<path fill-rule="evenodd" clip-rule="evenodd" d="M12.9796 17.1614C12.9796 18.0404 12.2935 19.6382 10.2927 19.6382C8.65195 19.6382 7.5752 18.6995 7.5752 17.1614C7.5752 15.5038 8.90361 14.6646 10.2927 14.6646C11.7859 14.6646 12.9796 15.576 12.9796 17.1614Z" fill="#FC9900"/>
<path fill-rule="evenodd" clip-rule="evenodd" d="M10.2393 22.3071C7.2052 22.3071 4.62666 20.4254 4.62666 17.1891C4.62666 13.7266 7.2052 12.0336 10.2393 12.0336C13.273 12.0336 15.738 14.0276 15.738 17.1891C15.738 20.3878 13.273 22.3071 10.2393 22.3071ZM21.0073 7.80225H9.99023C9.68824 7.80225 9.38538 7.8078 9.08468 7.83512C4.29326 8.26713 0 11.4035 0 17.1891C0 22.9846 4.05752 26.5222 10.2393 26.5222C13.7281 26.5222 15.5482 27.9523 15.5482 30.1726C15.5482 32.468 12.7421 33.5595 10.1632 33.5595C7.24305 33.5219 4.51266 32.0543 4.66451 29.4575H0.0757129C-0.113999 34.7638 3.67853 38 10.1632 38C15.1692 38 20.3646 35.4412 20.3646 30.1726C20.3646 28.366 19.7202 25.5809 15.738 24.1509C18.8099 22.7588 20.3646 20.5009 20.3646 17.1891C20.3646 15.3518 19.8751 13.7206 18.403 11.9008H21.0073V7.80225Z" fill="#FC9900"/>
<path fill-rule="evenodd" clip-rule="evenodd" d="M57.592 12.1681C58.2747 12.1681 58.9221 12.3013 59.5167 12.5634C60.1107 12.8255 60.6412 13.1854 61.0933 13.634C61.545 14.0827 61.9029 14.6146 62.1554 15.2148C62.4088 15.8171 62.5374 16.4767 62.5374 17.1751C62.5374 17.8739 62.4088 18.5334 62.1554 19.1349C61.9029 19.736 61.545 20.2679 61.0933 20.7157C60.642 21.1639 60.1112 21.5242 59.5167 21.7868C58.9221 22.0489 58.2743 22.1821 57.592 22.1821C56.8869 22.1821 56.2223 22.0489 55.617 21.7868C55.0109 21.5242 54.4805 21.1644 54.0408 20.7161C53.5994 20.2683 53.2475 19.7364 52.9946 19.1349C52.7416 18.5347 52.613 17.8752 52.613 17.1751C52.613 16.4972 52.7416 15.8427 52.9946 15.2314C53.2475 14.6197 53.5994 14.0818 54.0408 13.6336C54.4813 13.1854 55.0117 12.8255 55.617 12.5634C56.2223 12.3013 56.8869 12.1681 57.592 12.1681ZM64.5498 10.4033C63.7501 9.58795 62.8153 8.95658 61.7721 8.5267C60.7285 8.09725 59.6251 7.87954 58.4928 7.87954C57.2711 7.87954 56.1616 8.13652 55.1946 8.64367C54.252 9.13843 53.4738 9.80908 52.8802 10.6385V0H48.2578V26.1726H52.8466V23.7479C53.4416 24.6192 54.237 25.3056 55.2118 25.7893C56.2115 26.2853 57.3266 26.5368 58.5259 26.5368C59.6363 26.5368 60.7229 26.3186 61.7554 25.8892C62.7882 25.4593 63.7174 24.8284 64.5167 24.013C65.3156 23.1981 65.9686 22.2094 66.4569 21.0751C66.9451 19.9396 67.1929 18.6384 67.1929 17.2084C67.1929 15.7992 66.9511 14.504 66.4736 13.3578C65.9957 12.212 65.3487 11.2178 64.5498 10.4033Z" fill="#393C59"/>
<path fill-rule="evenodd" clip-rule="evenodd" d="M82.2213 8.24369V18.1019C82.2213 19.4794 81.8647 20.5539 81.1609 21.2958C80.4571 22.0378 79.5542 22.4134 78.477 22.4134C77.2453 22.4134 76.3204 22.0489 75.7277 21.3304C75.134 20.6103 74.8329 19.613 74.8329 18.367V8.24369H70.0771V18.9958C70.0771 21.3535 70.6966 23.2194 71.9188 24.5419C73.1414 25.8657 74.8875 26.5368 77.109 26.5368C78.2202 26.5368 79.2345 26.302 80.1242 25.8388C80.9888 25.3876 81.7167 24.7613 82.2884 23.9759V26.1731L86.9439 26.1393V8.20996L82.2471 8.24369H82.2213Z" fill="#393C59"/>
<path fill-rule="evenodd" clip-rule="evenodd" d="M103.296 16.6405C102.663 16.2328 101.954 15.9143 101.187 15.6936C100.422 15.4742 99.652 15.2842 98.9005 15.1306C97.5992 14.8462 96.5783 14.585 95.8668 14.3532C95.1699 14.1265 94.8167 13.7282 94.8167 13.169C94.8167 12.6725 95.0323 12.2614 95.4569 11.9481C95.8845 11.633 96.5586 11.473 97.4602 11.473C98.2965 11.473 99.0055 11.639 99.566 11.966C100.126 12.293 100.6 12.7583 100.975 13.3483L100.986 13.3662L105.21 11.6698L105.24 11.6578L105.222 11.6313C104.378 10.442 103.342 9.49859 102.144 8.82624C100.944 8.15389 99.3685 7.81323 97.4602 7.81323C96.3503 7.81323 95.3321 7.96392 94.433 8.26147C93.5335 8.55901 92.7505 8.96669 92.1061 9.47383C91.4608 9.98183 90.9532 10.5863 90.5979 11.2702C90.2417 11.9545 90.061 12.6828 90.061 13.4337C90.061 14.3839 90.2533 15.1737 90.6323 15.7816C91.01 16.3886 91.5125 16.8983 92.1246 17.2957C92.7363 17.6932 93.435 18.0061 94.2003 18.2259C94.9673 18.4466 95.7369 18.6362 96.488 18.7894C97.0688 18.9004 97.6185 19.0118 98.1223 19.1203C98.6308 19.2304 99.0846 19.358 99.4696 19.4998C99.8542 19.6419 100.16 19.8182 100.379 20.024C100.595 20.2285 100.704 20.4953 100.704 20.8167C100.704 21.3363 100.46 21.7917 99.9798 22.1708C99.4976 22.5516 98.7843 22.7446 97.8607 22.7446C95.9232 22.7446 94.5388 21.9365 93.7464 20.342L93.7361 20.3211L89.251 22.0611L89.263 22.0863C89.9733 23.5185 91.0264 24.6306 92.3931 25.3913C93.7585 26.1516 95.542 26.5371 97.6938 26.5371C99.0024 26.5371 100.156 26.3582 101.122 26.0056C102.087 25.6538 102.903 25.1902 103.55 24.6267C104.194 24.0649 104.678 23.4267 104.99 22.7309C105.302 22.0355 105.46 21.3247 105.46 20.6182C105.46 19.6692 105.257 18.8629 104.856 18.2212C104.455 17.5813 103.931 17.0494 103.296 16.6405Z" fill="#393C59"/>
<path fill-rule="evenodd" clip-rule="evenodd" d="M113.175 21.5937C112.627 21.0396 111.92 20.7583 111.072 20.7583C110.224 20.7583 109.516 21.0396 108.969 21.5937C108.421 22.1474 108.144 22.8552 108.144 23.6974C108.144 24.5393 108.416 25.247 108.952 25.8007C109.488 26.3553 110.202 26.6366 111.072 26.6366C111.92 26.6366 112.627 26.3553 113.175 25.8007C113.723 25.247 114 24.5393 114 23.6974C114 22.856 113.723 22.1483 113.175 21.5937Z" fill="#393C59"/>
</svg>
