<svg width="143" height="48" viewBox="0 0 143 48" fill="none" xmlns="http://www.w3.org/2000/svg">
<path fill-rule="evenodd" clip-rule="evenodd" d="M34.9501 21.7124C34.9501 25.8009 38.1851 28.1773 41.9905 28.1773C45.7965 28.1773 48.8885 25.7529 48.8885 21.7124C48.8885 17.7195 45.7965 15.2002 41.9905 15.2002C38.1851 15.2002 34.9501 17.3393 34.9501 21.7124ZM54.6916 21.7124C54.6916 25.8958 51.4479 33.5016 41.9905 33.5016C34.2367 33.5016 29.1465 29.033 29.1465 21.7124C29.1465 13.8214 35.4255 9.82837 41.9905 9.82837C49.0488 9.82837 54.6916 14.1649 54.6916 21.7124Z" fill="white"/>
<path fill-rule="evenodd" clip-rule="evenodd" d="M16.2812 21.6777C16.2812 22.788 15.4205 24.8063 12.9107 24.8063C10.8526 24.8063 9.50195 23.6205 9.50195 21.6777C9.50195 19.5839 11.1683 18.5237 12.9107 18.5237C14.7838 18.5237 16.2812 19.675 16.2812 21.6777Z" fill="white"/>
<path fill-rule="evenodd" clip-rule="evenodd" d="M12.844 28.1774C9.0381 28.1774 5.80362 25.8005 5.80362 21.7126C5.80362 17.3389 9.0381 15.2003 12.844 15.2003C16.6494 15.2003 19.7415 17.7191 19.7415 21.7126C19.7415 25.753 16.6494 28.1774 12.844 28.1774ZM26.3513 9.85547H12.5316C12.1528 9.85547 11.7729 9.86248 11.3957 9.89699C5.38541 10.4427 0 14.4044 0 21.7126C0 29.0332 5.0897 33.5018 12.844 33.5018C17.2204 33.5018 19.5035 35.3082 19.5035 38.1127C19.5035 41.0121 15.9836 42.391 12.7485 42.391C9.08559 42.3435 5.66062 40.4896 5.8511 37.2095H0.0949732C-0.142999 43.9121 4.61429 48 12.7485 48C19.0281 48 25.5451 44.7679 25.5451 38.1127C25.5451 35.8307 24.7367 32.3128 19.7415 30.5063C23.5949 28.7479 25.5451 25.8959 25.5451 21.7126C25.5451 19.3917 24.931 17.3313 23.0844 15.0326H26.3513V9.85547Z" fill="white"/>
<path fill-rule="evenodd" clip-rule="evenodd" d="M72.2419 15.3702C73.0983 15.3702 73.9104 15.5384 74.6561 15.8695C75.4014 16.2006 76.0667 16.6552 76.6339 17.2219C77.2005 17.7886 77.6494 18.4605 77.9662 19.2187C78.284 19.9795 78.4454 20.8126 78.4454 21.6948C78.4454 22.5775 78.284 23.4106 77.9662 24.1704C77.6494 24.9297 77.2005 25.6015 76.6339 26.1672C76.0678 26.7334 75.4019 27.1885 74.6561 27.5201C73.9104 27.8512 73.0977 28.0194 72.2419 28.0194C71.3574 28.0194 70.5237 27.8512 69.7645 27.5201C69.0042 27.1885 68.3388 26.7339 67.7873 26.1677C67.2337 25.6021 66.7923 24.9302 66.475 24.1704C66.1577 23.4123 65.9963 22.5792 65.9963 21.6948C65.9963 20.8385 66.1577 20.0119 66.475 19.2397C66.7923 18.467 67.2337 17.7876 67.7873 17.2214C68.3399 16.6552 69.0052 16.2006 69.7645 15.8695C70.5237 15.5384 71.3574 15.3702 72.2419 15.3702ZM80.9697 13.141C79.9665 12.1111 78.794 11.3136 77.4854 10.7706C76.1763 10.2281 74.7921 9.9531 73.3718 9.9531C71.8393 9.9531 70.4476 10.2777 69.2346 10.9183C68.0523 11.5433 67.0761 12.3904 66.3314 13.4381V0H60.5332V33.0602H66.2893V29.9973C67.0356 31.0979 68.0334 31.965 69.2562 32.5759C70.5102 33.2025 71.9089 33.5201 73.4134 33.5201C74.8062 33.5201 76.1692 33.2446 77.4643 32.7021C78.76 32.1591 79.9255 31.3621 80.9281 30.3322C81.9302 29.3028 82.7494 28.054 83.3618 26.6212C83.9743 25.1869 84.2851 23.5433 84.2851 21.7369C84.2851 19.9569 83.9819 18.3209 83.3829 16.873C82.7834 15.4257 81.9718 14.1699 80.9697 13.141Z" fill="#393C59"/>
<path fill-rule="evenodd" clip-rule="evenodd" d="M103.137 10.4131V22.8656C103.137 24.6057 102.689 25.9629 101.807 26.9001C100.924 27.8373 99.7912 28.3118 98.4399 28.3118C96.895 28.3118 95.7348 27.8513 94.9912 26.9438C94.2466 26.0341 93.8688 24.7744 93.8688 23.2004V10.4131H87.9033V23.9947C87.9033 26.9729 88.6804 29.3299 90.2134 31.0004C91.747 32.6725 93.9374 33.5202 96.724 33.5202C98.1178 33.5202 99.3902 33.2236 100.506 32.6386C101.591 32.0686 102.504 31.2775 103.221 30.2854V33.0608L109.061 33.0182V10.3705L103.169 10.4131H103.137Z" fill="#393C59"/>
<path fill-rule="evenodd" clip-rule="evenodd" d="M129.573 21.0195C128.779 20.5045 127.889 20.1022 126.928 19.8234C125.967 19.5463 125.002 19.3063 124.059 19.1122C122.427 18.7531 121.146 18.4231 120.254 18.1303C119.38 17.8439 118.937 17.3408 118.937 16.6344C118.937 16.0073 119.207 15.488 119.74 15.0922C120.276 14.6943 121.122 14.4921 122.253 14.4921C123.302 14.4921 124.191 14.7018 124.894 15.1149C125.597 15.5279 126.191 16.1157 126.661 16.8609L126.676 16.8836L131.974 14.7407L132.012 14.7256L131.988 14.6921C130.93 13.1898 129.631 11.9981 128.127 11.1489C126.623 10.2996 124.646 9.86926 122.253 9.86926C120.86 9.86926 119.583 10.0596 118.455 10.4355C117.327 10.8113 116.345 11.3263 115.537 11.9669C114.727 12.6085 114.09 13.3721 113.645 14.2359C113.198 15.1003 112.971 16.0203 112.971 16.9688C112.971 18.1691 113.212 19.1667 113.688 19.9345C114.162 20.7013 114.792 21.3451 115.56 21.8472C116.327 22.3492 117.203 22.7444 118.163 23.0221C119.126 23.3009 120.091 23.5403 121.033 23.7339C121.762 23.8741 122.451 24.0149 123.083 24.1518C123.721 24.291 124.29 24.4522 124.773 24.6312C125.256 24.8108 125.639 25.0335 125.913 25.2934C126.184 25.5517 126.322 25.8887 126.322 26.2947C126.322 26.951 126.016 27.5263 125.413 28.0052C124.808 28.4862 123.914 28.7299 122.755 28.7299C120.325 28.7299 118.588 27.7091 117.594 25.6951L117.581 25.6687L111.955 27.8666L111.97 27.8984C112.861 29.7075 114.182 31.1122 115.896 32.0731C117.609 33.0335 119.846 33.5204 122.546 33.5204C124.187 33.5204 125.634 33.2945 126.846 32.8491C128.056 32.4047 129.08 31.8191 129.891 31.1074C130.699 30.3977 131.307 29.5916 131.698 28.7126C132.089 27.8342 132.287 26.9364 132.287 26.044C132.287 24.8453 132.032 23.8267 131.529 23.0162C131.027 22.2079 130.369 21.536 129.573 21.0195Z" fill="#393C59"/>
<path fill-rule="evenodd" clip-rule="evenodd" d="M141.965 27.2762C141.278 26.5762 140.39 26.2209 139.327 26.2209C138.263 26.2209 137.375 26.5762 136.688 27.2762C136.001 27.9755 135.653 28.8696 135.653 29.9335C135.653 30.9968 135.995 31.8909 136.667 32.5903C137.34 33.2907 138.235 33.6461 139.327 33.6461C140.39 33.6461 141.278 33.2907 141.965 32.5903C142.652 31.8909 143 30.9968 143 29.9335C143 28.8707 142.652 27.9766 141.965 27.2762Z" fill="#393C59"/>
</svg>
