<svg width="71" height="22" viewBox="0 0 71 22" fill="none" xmlns="http://www.w3.org/2000/svg">
<path fill-rule="evenodd" clip-rule="evenodd" d="M16.1214 9.91194C16.1214 11.785 17.6135 12.8739 19.3689 12.8739C21.1246 12.8739 22.5506 11.763 22.5506 9.91194C22.5506 8.08287 21.1246 6.9286 19.3689 6.9286C17.6135 6.9286 16.1214 7.9086 16.1214 9.91194ZM25.2277 9.91194C25.2277 11.8283 23.7313 15.3128 19.3689 15.3128C15.7923 15.3128 13.4443 13.2658 13.4443 9.91194C13.4443 6.29714 16.341 4.46777 19.3689 4.46777C22.6246 4.46777 25.2277 6.45456 25.2277 9.91194Z" fill="#393C59"/>
<path fill-rule="evenodd" clip-rule="evenodd" d="M7.50993 9.94136C7.50993 10.4497 7.11264 11.3746 5.95532 11.3746C5.00605 11.3746 4.38281 10.8314 4.38281 9.94136C4.38281 8.98183 5.15163 8.49664 5.95532 8.49664C6.81937 8.49664 7.50993 9.02366 7.50993 9.94136Z" fill="#393C59"/>
<mask id="mask0_1_1036" style="mask-type:luminance" maskUnits="userSpaceOnUse" x="0" y="4" width="13" height="18">
<path fill-rule="evenodd" clip-rule="evenodd" d="M0 4.52533H12.1552V22H0V4.52533Z" fill="white"/>
</mask>
<g mask="url(#mask0_1_1036)">
<path fill-rule="evenodd" clip-rule="evenodd" d="M5.92458 12.9188C4.16919 12.9188 2.67705 11.8302 2.67705 9.95716C2.67705 7.95382 4.16919 6.97382 5.92458 6.97382C7.67996 6.97382 9.10629 8.12809 9.10629 9.95716C9.10629 11.8085 7.67996 12.9188 5.92458 12.9188ZM12.1552 4.52533H5.88879C5.52637 4.52533 5.16334 4.54429 4.80547 4.59937C2.22031 4.99757 0 6.79263 0 9.95716C0 13.311 2.34769 15.358 5.92458 15.358C7.94321 15.358 8.9965 16.1857 8.9965 17.4703C8.9965 18.7988 7.37274 19.4303 5.8806 19.4303C4.19103 19.4086 2.61094 18.5592 2.69889 17.0567H0.0436723C-0.0661151 20.127 2.12812 22.0001 5.8806 22.0001C8.77723 22.0001 11.7833 20.5192 11.7833 17.4703C11.7833 16.425 11.4103 14.8135 9.10629 13.9861C10.8838 13.1804 11.7833 11.8735 11.7833 9.95716C11.7833 8.89409 11.5001 7.95021 10.6482 6.89707H12.1552V4.52533Z" fill="#393C59"/>
</g>
<mask id="mask1_1_1036" style="mask-type:luminance" maskUnits="userSpaceOnUse" x="0" y="0" width="71" height="22">
<path fill-rule="evenodd" clip-rule="evenodd" d="M0 22H71V0H0V22Z" fill="white"/>
</mask>
<g mask="url(#mask1_1_1036)">
<path fill-rule="evenodd" clip-rule="evenodd" d="M27.9229 15.1262H30.6166V0H27.9229V15.1262Z" fill="#B080BC"/>
<path fill-rule="evenodd" clip-rule="evenodd" d="M33.0889 15.1261H35.8402V4.75098H33.0889V15.1261Z" fill="#B080BC"/>
<path fill-rule="evenodd" clip-rule="evenodd" d="M34.455 0.115051C33.9637 0.115051 33.5513 0.280893 33.228 0.60806C32.905 0.934927 32.7412 1.35389 32.7412 1.85383C32.7412 2.34112 32.9016 2.75105 33.2186 3.0713C33.5349 3.39215 33.951 3.55468 34.455 3.55468C34.9712 3.55468 35.394 3.39215 35.7106 3.0713C36.0276 2.75075 36.188 2.34112 36.188 1.85383C36.188 1.3542 36.0276 0.935228 35.7109 0.60806C35.394 0.280893 34.9712 0.115051 34.455 0.115051Z" fill="#B080BC"/>
<path fill-rule="evenodd" clip-rule="evenodd" d="M50.3348 4.54041C49.6151 4.54041 48.9664 4.69902 48.4069 5.01174C47.8546 5.32055 47.4064 5.74313 47.0737 6.26865C46.7907 5.71785 46.384 5.28865 45.8636 4.99278C45.3356 4.6927 44.6705 4.54041 43.8871 4.54041C43.2569 4.54041 42.6897 4.67013 42.2009 4.92536C41.725 5.17367 41.3235 5.51709 41.0062 5.94659V4.75109H38.3125V15.1263H41.0256V9.36395C41.0256 8.52872 41.2094 7.90057 41.5719 7.49605C41.9343 7.09274 42.4338 6.88807 43.057 6.88807C43.7054 6.88807 44.1819 7.07979 44.4739 7.45692C44.7663 7.83586 44.9146 8.37432 44.9146 9.05755V15.1263H47.6663V9.30646C47.6663 8.49682 47.847 7.88402 48.2034 7.48672C48.5588 7.08973 49.0419 6.88807 49.64 6.88807C50.3139 6.88807 50.8067 7.08942 51.1046 7.48552C51.4036 7.88372 51.5552 8.43843 51.5552 9.1343V15.1263H54.3263V8.75085C54.3263 7.4506 53.9909 6.41282 53.3285 5.66608C52.6658 4.91934 51.6586 4.54041 50.3348 4.54041Z" fill="#B080BC"/>
<path fill-rule="evenodd" clip-rule="evenodd" d="M62.3223 12.569C61.9783 12.7207 61.6038 12.7978 61.2086 12.7978C60.8134 12.7978 60.4389 12.7207 60.095 12.569C59.7505 12.4171 59.4469 12.2118 59.1924 11.9593C58.9374 11.7064 58.7339 11.4018 58.5874 11.0539C58.4409 10.7066 58.3666 10.3246 58.3666 9.9195C58.3666 9.52732 58.4409 9.14898 58.5874 8.79473C58.7339 8.44077 58.9374 8.13317 59.1924 7.88004C59.4472 7.62722 59.7508 7.42165 60.095 7.27025C60.4389 7.11856 60.8134 7.04151 61.2086 7.04151C61.6038 7.04151 61.9783 7.11856 62.3223 7.27025C62.6662 7.42165 62.9698 7.62692 63.2251 7.88004C63.4799 8.13317 63.6834 8.44077 63.8302 8.79473C63.9767 9.14959 64.051 9.52792 64.051 9.9195C64.051 10.324 63.9767 10.706 63.8302 11.0539C63.6834 11.4015 63.4799 11.7061 63.2251 11.9593C62.9704 12.2118 62.6665 12.4171 62.3223 12.569ZM65.1282 6.11599C64.6336 5.63141 64.041 5.24344 63.3668 4.96292C62.6923 4.68271 61.9595 4.54034 61.1895 4.54034C60.4064 4.54034 59.6704 4.68271 59.0023 4.96292C58.3341 5.24374 57.7446 5.63141 57.2505 6.11599C56.7559 6.60057 56.3649 7.17906 56.089 7.8352C55.8127 8.49134 55.6729 9.19925 55.6729 9.93876C55.6729 10.6786 55.8127 11.3832 56.089 12.0327C56.3649 12.6831 56.7559 13.2616 57.2502 13.7522C57.7449 14.2431 58.3344 14.6341 59.0023 14.9143C59.6704 15.1948 60.4064 15.3369 61.1895 15.3369C61.9726 15.3369 62.7114 15.1948 63.3862 14.9143C64.0601 14.6341 64.6496 14.2431 65.1382 13.7522C65.6262 13.2616 66.0168 12.6831 66.2995 12.033C66.5821 11.3823 66.7256 10.6777 66.7256 9.93876C66.7256 9.20015 66.5821 8.49224 66.2995 7.8349C66.0171 7.17936 65.6232 6.60087 65.1282 6.11599Z" fill="#B080BC"/>
<path fill-rule="evenodd" clip-rule="evenodd" d="M70.5228 12.4765C70.2059 12.1559 69.7962 11.9931 69.3055 11.9931C68.8147 11.9931 68.4056 12.1559 68.0887 12.4765C67.7721 12.7967 67.6113 13.2067 67.6113 13.6937C67.6113 14.1809 67.7687 14.5906 68.0787 14.9111C68.3892 15.2317 68.802 15.3942 69.3055 15.3942C69.7962 15.3942 70.2056 15.2317 70.5228 14.9111C70.8394 14.5903 70.9999 14.1809 70.9999 13.6937C70.9999 13.207 70.8394 12.7973 70.5228 12.4765Z" fill="#B080BC"/>
</g>
</svg>
