<svg width="72" height="22" viewBox="0 0 72 22" fill="none" xmlns="http://www.w3.org/2000/svg">
<path fill-rule="evenodd" clip-rule="evenodd" d="M16.4561 9.8777C16.4561 11.7629 17.9791 12.859 19.7709 12.859C21.563 12.859 23.0184 11.7408 23.0184 9.8777C23.0184 8.03625 21.563 6.87456 19.7709 6.87456C17.9791 6.87456 16.4561 7.86109 16.4561 9.8777ZM25.7514 9.8777C25.7514 11.8067 24.224 15.3142 19.7709 15.3142C16.1202 15.3142 13.7236 13.2536 13.7236 9.8777C13.7236 6.23884 16.68 4.39764 19.7709 4.39764C23.0942 4.39764 25.7514 6.39734 25.7514 9.8777Z" fill="#393C59"/>
<path fill-rule="evenodd" clip-rule="evenodd" d="M7.66571 9.86171C7.66571 10.3735 7.26022 11.3043 6.07857 11.3043C5.10971 11.3043 4.47363 10.7577 4.47363 9.86171C4.47363 8.89607 5.25818 8.40741 6.07857 8.40741C6.96074 8.40741 7.66571 8.93812 7.66571 9.86171Z" fill="#393C59"/>
<path fill-rule="evenodd" clip-rule="evenodd" d="M6.04756 12.859C4.25577 12.859 2.73269 11.763 2.73269 9.87772C2.73269 7.86111 4.25577 6.87457 6.04756 6.87457C7.83961 6.87457 9.29507 8.03627 9.29507 9.87772C9.29507 11.7408 7.83961 12.859 6.04756 12.859ZM12.4073 4.40985H5.90062C5.72215 4.40985 5.54343 4.41333 5.36573 4.42901C2.53592 4.68081 0 6.50782 0 9.87772C0 13.2536 2.39686 15.3142 6.04756 15.3142C8.10808 15.3142 9.18321 16.147 9.18321 17.4406C9.18321 18.7777 7.5259 19.4134 6.00257 19.4134C4.27814 19.3912 2.66532 18.5366 2.75506 17.0241H0.0449983C-0.0671161 20.1148 2.17263 22 6.00257 22C8.95923 22 12.0278 20.5094 12.0278 17.4406C12.0278 16.3883 11.6469 14.7661 9.29507 13.9331C11.1095 13.1222 12.0278 11.8067 12.0278 9.87772C12.0278 8.80733 11.739 7.85737 10.8692 6.79719H12.4073V4.40985Z" fill="#393C59"/>
<path fill-rule="evenodd" clip-rule="evenodd" d="M40.7728 4.45477C40.0381 4.45477 39.3761 4.61451 38.8048 4.92926C38.2414 5.24002 37.7836 5.66549 37.4439 6.19446C37.1554 5.64011 36.74 5.20792 36.2089 4.9101C35.6699 4.60804 34.9912 4.45477 34.1914 4.45477C33.5482 4.45477 32.9693 4.58515 32.47 4.84217C31.9847 5.09248 31.5746 5.43807 31.251 5.87001V4.66701H28.501V15.1106H31.2705V9.31032C31.2705 8.46958 31.4582 7.83686 31.8283 7.43005C32.198 7.02399 32.7079 6.81798 33.344 6.81798C34.0058 6.81798 34.4924 7.01056 34.7903 7.39074C35.0888 7.77217 35.24 8.31408 35.24 9.00154V15.1106H38.049V9.25234C38.049 8.43699 38.2333 7.82069 38.5969 7.42035C38.9596 7.02076 39.4534 6.81798 40.0635 6.81798C40.7512 6.81798 41.2543 7.02051 41.5586 7.4196C41.8639 7.82019 42.0185 8.37852 42.0185 9.07867V15.1106H44.847V8.69302C44.847 7.38402 44.5046 6.33951 43.8286 5.58811C43.1519 4.8362 42.1238 4.45477 40.7728 4.45477Z" fill="#FF6A39"/>
<path fill-rule="evenodd" clip-rule="evenodd" d="M46.9053 15.1105H49.714V4.66693H46.9053V15.1105Z" fill="#FF6A39"/>
<path fill-rule="evenodd" clip-rule="evenodd" d="M48.3001 0C47.7988 0 47.3775 0.166952 47.0478 0.496378C46.7181 0.825305 46.5508 1.24729 46.5508 1.75063C46.5508 2.24104 46.7148 2.65357 47.0381 2.97578C47.3613 3.29873 47.7861 3.46245 48.3001 3.46245C48.8274 3.46245 49.2588 3.29873 49.5819 2.97578C49.9051 2.65332 50.069 2.24079 50.069 1.75063C50.069 1.24754 49.9051 0.825554 49.5819 0.496378C49.2588 0.166952 48.8271 0 48.3001 0Z" fill="#FF6A39"/>
<path fill-rule="evenodd" clip-rule="evenodd" d="M57.6993 4.45477C57.0299 4.45477 56.4213 4.59162 55.8895 4.86133C55.3719 5.12407 54.9389 5.48908 54.601 5.94664V4.66701H51.8516V15.1106H54.6211V9.34863C54.6211 8.54647 54.8382 7.91747 55.2671 7.47882C55.6952 7.04041 56.2352 6.81798 56.8718 6.81798C57.5857 6.81798 58.1287 7.03345 58.4856 7.45867C58.8428 7.88488 59.0241 8.47556 59.0241 9.21378V15.1106H61.8328V8.80896C61.8328 7.44871 61.4568 6.37136 60.7152 5.60677C59.9731 4.84242 58.9585 4.45477 57.6993 4.45477Z" fill="#FF6A39"/>
<path fill-rule="evenodd" clip-rule="evenodd" d="M63.8916 15.1105H66.7003V4.66693H63.8916V15.1105Z" fill="#FF6A39"/>
<path fill-rule="evenodd" clip-rule="evenodd" d="M65.2855 0C64.7841 0 64.3629 0.166952 64.0331 0.496378C63.7032 0.825305 63.5361 1.24729 63.5361 1.75063C63.5361 2.24104 63.7001 2.65357 64.0232 2.97578C64.3464 3.29873 64.7712 3.46245 65.2855 3.46245C65.8125 3.46245 66.2439 3.29873 66.567 2.97578C66.8902 2.65332 67.0544 2.24079 67.0544 1.75063C67.0544 1.24754 66.8902 0.825554 66.5673 0.496378C66.2439 0.166952 65.8125 0 65.2855 0Z" fill="#FF6A39"/>
<path fill-rule="evenodd" clip-rule="evenodd" d="M71.5127 12.4432C71.189 12.1205 70.7711 11.9565 70.2703 11.9565C69.7694 11.9565 69.3515 12.1205 69.0281 12.4432C68.7047 12.7659 68.541 13.1782 68.541 13.6686C68.541 14.159 68.7014 14.5713 69.0179 14.894C69.3352 15.2167 69.7565 15.3807 70.2703 15.3807C70.7711 15.3807 71.189 15.2167 71.5127 14.894C71.8358 14.5713 71.9998 14.159 71.9998 13.6686C71.9998 13.1785 71.8358 12.7662 71.5127 12.4432Z" fill="#FF6A39"/>
</svg>
